<?xml version="1.0" encoding="utf-8"?>
<!-- Generator: Adobe Illustrator 19.2.1, SVG Export Plug-In . SVG Version: 6.00 Build 0)  -->
<svg version="1.1" id="layer" xmlns="http://www.w3.org/2000/svg" xmlns:xlink="http://www.w3.org/1999/xlink" x="0px" y="0px"
	 viewBox="0 0 652 652" style="enable-background:new 0 0 652 652;" xml:space="preserve">
<style type="text/css">
	.st0{fill:#C89801;}
</style>
<polygon class="st0" points="347.2,197.9 355.2,189.8 362.5,197.2 363.2,197.8 355.2,205.9 "/>
<polygon class="st0" points="363.3,197.9 371.3,189.8 378.6,197.2 379.3,197.9 371.3,205.9 "/>
<path class="st0" d="M352.4,277.8c-2.2,0-3.7-0.8-3.8-0.9c-3.1-1.2-4.8-4.6-4.8-9.4c0-0.8,0-1.3,0.1-1.6v-1.3h-68v-61.2
	c0-2.6-1.7-3.3-3.1-4.1c-1.2-0.6-2.4-1.3-2.7-3c0-0.3,0-0.4,0-0.6l0-0.4c9.4-6.9,16.2-15.9,16.2-15.9v74.8h57.7v-2.9
	c-0.1-2.6-0.3-7.9-12.9-8c0,0-5.9,0.1-11.8,0.1c-3.3,0-6.6,0-8.8-0.1c-3.6-0.3-5.6-4.3-5.7-7.9c0-2.5,1-4.5,2.6-5.6l0.9-0.6l0.5,0.9
	c1.1,2.2,5.9,3.2,14.9,3.2h0.9c3.6,0,7.7-0.1,12.4-0.2c0.2,0,0.5,0,0.8,0c15.3,0,17,13.3,17.1,19l0,1c0,0.5,0,0.9,0,1.2h15.1v-22.6
	c0,0,0.2-1.7-2.9-3.4c-2.1-1.2-2.6-3.6-2.6-3.6c12.2-8.8,15.6-16.4,15.6-16.4l0,56.3h-25.4v0.8c0,3.4,0.6,7.8,2.6,9.3l1.1,0.9
	l-1.2,0.7C355.7,277.3,354,277.8,352.4,277.8"/>
<path class="st0" d="M230.8,273.1v-8.5h-34.9v-10.5h44.4l0,13.8c0,0-0.5,4.3,7.9,4.3c5.3,0,5.3-5.1,5.3-5.3v-24.6
	c0-3.4-2.3-3.9-3.9-3.9c-0.3,0-0.5,0-0.5,0H196l0-30.7c0,0,6.2,7.7,12.4,11.3c1,0.6,0.5,2.3-2.6,4.3c-0.6,0.4-1.4,0.7-1.4,1.6v3.8
	h53.1c6.2,0.1,6.8,6.6,6.8,8.6c0,0.3,0,35.2,0,35.2c0,0.1-0.5,9.5-15.7,9.5C229.7,282.1,230.8,273.1,230.8,273.1"/>
<path class="st0" d="M441.7,264.6V179l1.8,2.9c0,0,1.3,2.2,6.8,6.9c3.2,2.8,5,3.9,5.9,4.3c0.9,0.4,1.7,0.7,1.7,1.7l0,0.9
	c-0.2,1.8-1.5,2.5-2.7,3.1c-1.4,0.8-2.8,1.5-2.9,4.1c-0.2,2,0,61.7,0,61.7H441.7z"/>
<path class="st0" d="M391.7,275.7l10.7-10.8l-13-12.8v-73.1c0,0,5.7,10.8,13.3,16.2l0,0.8c-0.2,1.7-1.2,2.4-2.1,3
	c-1.2,0.8-2.3,1.5-2.4,4.2c-0.1,1.9,0,42.7,0,43.4l10.8,11.2l10.8-11.2c0,0,0.1-41.4,0-43.4c-0.1-2.7-1.2-3.4-2.4-4.2
	c-1-0.6-2-1.3-2.1-3l0-0.6c8.5-5.5,13.3-16.5,13.3-16.5v72.1l-13,13.7l10.8,10.8l-17.3,17.4L391.7,275.7z M409.1,282.9l7.2-7.3
	l-7.2-7.2l-7.3,7.2L409.1,282.9z"/>
<path class="st0" d="M364.3,374l18.3-19.7v-38.9c0-0.3,0.4-0.6,0.4-0.6l2.7-1.3v-2.2h-24.6v2.2l2.5,1.6c0.7,0.4,0.8,0.7,0.8,1v22.3
	h-49.2l-11.1,14.1v-36.3l0.1-0.7c0,0,0.2-0.2,0.6-0.4l2.3-1.5l0.2-0.1v-2.2h-24.5v2.2l2.4,1.6c0.4,0.2,0.5,0.4,0.6,0.4l0,0l0,66.8
	l-0.1,0.9c-0.1,0.2-0.3,0.3-0.5,0.4l-2.4,1.6v2.2h24.5v-2.2l-2.6-1.6c-0.4-0.2-0.6-0.3-0.6-0.3h0v-30.6l2.6,0.8l3.4-2
	c0.6-0.4,1.2-0.6,1.5-0.7c0.2-0.1,0.6-0.2,1.4-0.2h51.3V374z"/>
<path class="st0" d="M625.6,341c-2.9-9.1-9.5-16.6-19.6-22.2c-9.1-5.1-22.1-7.6-39.6-7.6h-66.8v2.2c0,0,2.8,1.9,2.9,1.9c0,0,0,0,0,0
	l0,7.9h63.8c12.9,0,22.3,1.7,28.1,5.1c9.1,5.3,13.6,12.2,13.6,21.1c0,4.5-1.2,8.5-3.5,12.1c-2.3,3.6-5.9,6.6-10.6,9.1
	c-6.2,3.2-15.6,4.8-28,4.8h-33.3v-46.7h-18.2l0,53.6l-0.1,0.8c-0.1,0.1-0.3,0.3-0.5,0.5l-2.2,1.4l-0.2,0.1v2.2h54.6
	c10.5,0,18.7-0.6,24.5-1.8c7.9-1.7,15-4.5,20.9-8.6c6.1-4.1,10.4-8.8,12.9-14c1.9-3.8,2.8-8.1,2.8-12.6
	C626.9,347.1,626.5,344,625.6,341"/>
<path class="st0" d="M385.6,384.4c-0.5-0.1-0.8-0.2-1-0.3l45.8-47.6l-10.6-11.3l-59.3,62h27.3v-2.6h-1
	C386.4,384.5,386,384.5,385.6,384.4"/>
<path class="st0" d="M424.7,322.2l11.7,12.4l12.1,12.2h-20.4l-11.2,11.7l2.4,1.7l2.6-1.4c0.3-0.1,0.5-0.2,0.7-0.2c0.2,0,0.9,0,1.9,0
	h35l24.1,25.8c0,0-0.4,0.4-2.5,0.4h-0.9v2.6h27.3l-72.3-76.2L424.7,322.2z"/>
<path class="st0" d="M249.5,313.5l2.4,1.6c0.6,0.4,0.9,0.7,0.9,1l0,66l-0.2,0.9c-0.2,0.2-0.5,0.4-0.7,0.5l-2.5,1.6v2.2h24.4v-2.2
	l-2.2-1.6c-0.3-0.2-0.5-0.4-0.5-0.4c-0.1,0-0.1,0-0.1,0l0-67l0.1-0.7l0.6-0.5l2.2-1.5v-2.2h-24.4V313.5z"/>
<path class="st0" d="M147.3,372.7l-3.2,1.8c-0.9,0.5-1.3,0.7-1.4,0.7l-54.5,0.1c-12.5,0-21.9-1.6-28.2-4.8c-9.4-4.9-14-11.8-14-21.3
	c0-4.2,1.2-8.3,3.6-12c4.7-6.9,11.5-11.6,21.2-13.4c2.6-0.5,5.1-0.6,6.7-0.6h28.1c1.7-0.1,1.4,0.3,1.5,0.5l-0.3,2h2.3l12-14.5H87.6
	c-7.8,0-13.8,0.3-18,0.8c-2.2,0.3-4.3,0.7-6.4,1.1c-5.5,1.3-10.8,3.3-15.9,6.2C39,324.1,33.2,330,29.8,337c-1.9,4-2.9,8.5-2.8,13.3
	c0,12.3,6.6,22.1,19.6,29.1c5.9,3.2,12.5,5.5,19.7,6.6c5.4,0.9,12.7,1.3,21.9,1.3h50.7l12.1-14.7h-1L147.3,372.7z"/>
<path class="st0" d="M123.1,354.4l11.8-14.8H55.4l-8,11.9l71.7,0c1.3,0.1,1.8,0.5,1.9,0.7l-0.3,2.1H123.1z"/>
<path class="st0" d="M118.2,325.2l2.3,0.8l0.3,0.1l3.5-1.7c1-0.6,1.9-0.9,2.9-0.9H171l0,58.9l-0.2,0.8c-0.2,0.2-0.4,0.4-0.5,0.4
	l-2.5,1.7v2.2h24.5v-2.2l-2.5-1.6l-0.6-0.6c0-0.1,0-0.4,0-0.6v-59h39c1.5,0.2,1.7,0.5,1.7,0.6v2.1h2.2l12.1-14.7H129.3L118.2,325.2z
	"/>
<polygon class="st0" points="137.6,471.1 156.1,424.4 162.1,424.4 180.4,471.1 170.9,471.1 167.2,461.4 155.1,461.4 152.5,454.8 
	164.7,454.8 159.9,441.9 158.6,437.9 157.3,441.9 146.3,471.1 "/>
<rect x="203.4" y="424.4" class="st0" width="9.1" height="46.7"/>
<path class="st0" d="M265.1,471.1l-10.7-15.3h-5.2v15.3h-9.1v-46.7h15c5.5,0,9.7,1.2,12.6,3.7c2.9,2.5,4.3,6.2,4.3,11.1
	c0,3.6-0.8,6.8-2.5,9.4c-1.6,2.7-4,4.6-7,5.8l12.7,16.5H265.1z M249.3,449.4h5.9c5.1,0,7.7-3.1,7.7-9.2c0-2.8-0.6-4.9-1.8-6.4
	c-1.2-1.5-3.2-2.2-6-2.2h-5.8V449.4z"/>
<polygon class="st0" points="307.1,471.1 293.3,424.4 302.7,424.4 311.3,457.7 311.7,457.7 320,431.9 317.6,424.4 326.5,424.4 
	337.3,457.7 337.5,457.7 346.2,424.4 355.1,424.4 341,471.1 333.3,471.1 323.9,442.2 314.5,471.1 "/>
<polygon class="st0" points="370.1,471.1 388.6,424.4 394.6,424.4 412.9,471.1 403.5,471.1 399.8,461.4 387.6,461.4 385,454.8 
	397.3,454.8 392.4,441.9 391.1,437.9 389.8,441.9 378.8,471.1 "/>
<polygon class="st0" points="441.3,471.1 441.3,452 426,424.4 436.1,424.4 446.2,444.1 456.7,424.4 465.6,424.4 450.3,452 
	450.3,471.1 "/>
<path class="st0" d="M498,472.2c-4.9,0-8.9-1-11.9-3.1v-9.5c3.6,3.2,7.6,4.8,12.1,4.8c5.6,0,8.4-2.2,8.4-6.5c0-1.7-0.6-3-1.7-3.9
	c-1.1-0.9-3.1-1.7-5.9-2.4l-1.7-0.4c-7.9-1.9-11.8-6.4-11.8-13.4c0-4.6,1.4-8.1,4.3-10.7c2.9-2.5,7-3.8,12.3-3.8c5.1,0,9.1,1,11.9,3
	v9.5c-1.3-1.2-3-2.3-5.2-3.2c-2.2-1-4.6-1.4-7.1-1.4c-2.7,0-4.6,0.5-5.8,1.4c-1.2,0.9-1.8,2.3-1.8,4.3c0,1.7,0.5,3.1,1.5,3.9
	c1,0.9,2.9,1.7,5.7,2.4l1.7,0.4c4.2,1,7.3,2.5,9.3,4.6c2,2,2.9,4.9,2.9,8.6c0,4.8-1.5,8.5-4.4,11.3
	C508.1,470.8,503.8,472.2,498,472.2"/>
</svg>
