<?xml version="1.0" encoding="utf-8"?>
<!-- Generator: Adobe Illustrator 19.2.1, SVG Export Plug-In . SVG Version: 6.00 Build 0)  -->
<svg version="1.1" id="layer" xmlns="http://www.w3.org/2000/svg" xmlns:xlink="http://www.w3.org/1999/xlink" x="0px" y="0px"
	 viewBox="0 0 652 652" style="enable-background:new 0 0 652 652;" xml:space="preserve">
<style type="text/css">
	.st0{fill:none;}
	.st1{fill:#FF5111;}
</style>
<path class="st0" d="M27,245.6h600v160.7H27V245.6z"/>
<path d="M212.5,322.6h-14.1V353c0,5.5,3.2,6.7,8.2,6.7c1.9,0,3.9-0.3,5.9-0.3v16.8c-4.2,0.1-8.3,0.7-12.5,0.7
	c-19.5,0-24.5-5.6-24.5-24.6v-29.7h-11.6v-15.3h11.6v-21.9h22.8v21.9h14.1L212.5,322.6L212.5,322.6z M327.5,322.6h-14.1V353
	c0,5.5,3.2,6.7,8.2,6.7c1.9,0,3.9-0.3,5.9-0.3v16.8c-4.2,0.1-8.3,0.7-12.5,0.7c-19.5,0-24.5-5.6-24.5-24.6v-29.7H279v-15.3h11.6
	v-21.9h22.9v21.9h14.1L327.5,322.6L327.5,322.6z M90.7,347.2c0,20.4-10.5,30.7-31.9,30.7c-24.1,0-31.9-13.9-31.9-34.2v-3.9h22.3v8.4
	c0,6,3.3,9.3,9.2,9.3c5.5,0,8.5-3.1,8.5-11.9V285h23.7L90.7,347.2L90.7,347.2z M115.9,346.9c0.4,9.5,5.9,15.7,15.5,15.7
	c5.5,0,10.8-2.5,12.9-7.6h21.2c-4.1,16-18.9,22.9-34.4,22.9c-22.5,0-37.8-13.6-37.8-36.8c0-21.2,16.9-36.4,37.3-36.4
	c24.8,0,37.2,18.7,36.1,42.1L115.9,346.9L115.9,346.9z M144,334.2c-0.4-7.7-5.9-14.1-13.5-14.1c-8,0-13.3,5.7-14.7,14.1L144,334.2
	L144,334.2z M234.7,353.2c0,3.5,1.5,6,3.7,7.7c2.1,1.6,5.2,2.4,8.4,2.4c4.4,0,10.6-1.9,10.6-7.3c0-5.3-7-6.4-11-7.3
	c-14.2-3.6-32-4-32-22.6c0-16.6,17.9-21.1,31.5-21.1c15.1,0,31,4.4,31.8,22.3h-20.9c0-2.9-1.1-4.8-2.9-6c-1.9-1.2-4.4-1.7-7.2-1.7
	c-3.7,0-9.7,0.4-9.7,5.2c0,6.5,15.1,7.7,25.5,10c14,2.8,17.5,12.9,17.5,18.6c0,18.5-17.5,24.6-33.1,24.6c-16.3,0-33.1-5.5-33.8-24.7
	L234.7,353.2L234.7,353.2z M331.6,328.4c0.4-9,4.6-14.9,10.7-18.4c6.1-3.4,14.1-4.8,21.9-4.8c16.3,0,32.1,3.6,32.1,23.1v30.1
	c0,5.8,0,12.2,2.7,17.6h-22.7c-0.8-2.1-1-4.2-1.3-6.5c-5.8,6.1-14.5,8.5-22.7,8.5c-13.1,0-23.5-6.6-23.5-20.8
	c0-22.4,24.4-20.7,40-23.9c3.8-0.8,6-2.1,6-6.4c0-5.2-6.2-7.2-10.9-7.2c-6.2,0-10.2,2.8-11.3,8.6L331.6,328.4L331.6,328.4z
	 M360.8,364c10.7,0,14.3-6.1,13.8-20.3c-3.2,2-9,2.4-13.9,3.7c-5,1.2-9.3,3.3-9.3,8.8C351.4,361.8,355.8,364,360.8,364L360.8,364z
	 M431,309.3c-3.5,2.3-6.1,5.6-7.8,9.9H423V307h-21.9v69h22.6v-34.2c0-8.6,5.8-16.4,17-16.4c2.6,0,4.9,0.4,7.3,1L431,309.3L431,309.3
	z"/>
<path class="st1" d="M530.4,245.6l2.9,47.3h65.3l-62.6,41.4l13.8,68.3l-53.2-46.2l-71.6,37.2l42.7-58.5l-40.5-42.1h65.5L530.4,245.6
	z"/>
</svg>
