<?xml version="1.0" encoding="utf-8"?>
<!-- Generator: Adobe Illustrator 19.2.1, SVG Export Plug-In . SVG Version: 6.00 Build 0)  -->
<svg version="1.1" id="layer" xmlns="http://www.w3.org/2000/svg" xmlns:xlink="http://www.w3.org/1999/xlink" x="0px" y="0px"
	 viewBox="0 0 652 652" style="enable-background:new 0 0 652 652;" xml:space="preserve">
<style type="text/css">
	.st0{fill:#525A68;}
	.st1{fill:#5C0D34;}
	.st2{fill:#757F8B;}
</style>
<g>
	<path class="st0" d="M151.1,406c-1.3,0-2.5,0-3.8,0s-3.1,0-4.4,0l4.4-10.1L151.1,406z M156.1,417.3c0.6,0,1.9,0,3.1,0
		c1.3,0,2.5,0,3.1,0c-1.9-3.8-4.4-10.1-6.3-13.8c-1.3-3.8-3.8-9.4-5.7-15.1c-0.6,0-0.6,0-1.3,0s-0.6,0-1.3,0
		c-1.3,3.1-3.1,8.8-7.5,18.2l-5,10.7c0.6,0,1.3,0,1.9,0s1.3,0,1.9,0c0.6-2.5,1.9-5.7,3.1-8.8c1.9,0,3.1,0,5,0c1.9,0,3.8,0,5,0
		l1.9,4.4L156.1,417.3z"/>
	<path class="st0" d="M165.5,398.4c0,6.9,0,13.8-0.6,18.9c0.6,0,1.9,0,3.1,0c1.3,0,1.9,0,3.1,0c-0.6-3.1-0.6-7.5-0.6-13.8
		c0-4.4,0-11.3,0.6-14.5c-1.3,0-1.9,0-3.1,0c-0.6,0-1.9,0-3.1,0C165.5,392.8,165.5,395.9,165.5,398.4"/>
	<path class="st0" d="M190.7,403.5c3.8-0.6,6.9-3.1,6.9-7.5c0-1.9-0.6-3.1-1.9-4.4c-1.9-1.9-3.8-1.9-6.3-1.9c-1.3,0-5.7,0-6.9,0
		c-1.9,0-3.1,0-4.4,0c0,5,0,5.7,0,11.3c0,8.2,0,8.8-0.6,17c0.6,0,1.9,0,3.1,0c1.3,0,1.9,0,2.5,0c0-1.3,0-6.3,0-7.5v-5.7h1.3
		c2.5,3.1,5,6.9,6.9,10.1c0.6,1.3,1.3,2.5,1.9,3.1c1.3,0,1.9,0,3.1,0c1.3,0,2.5,0,3.8,0c-2.5-3.1-3.8-5-6.9-9.4
		c-0.6-0.6-1.3-2.5-1.9-3.1L190.7,403.5z M183.8,390.9c0.6,0,1.9,0,3.1,0c1.3,0,2.5,0,3.8,1.3c1.3,1.3,1.9,2.5,1.9,4.4
		c0,2.5-1.3,5.7-5.7,5.7c-1.3,0-1.9,0-3.1,0V390.9z"/>
	<path class="st0" d="M212,407.9c-1.9-5.7-4.4-13.8-5.7-18.9c-1.3,0-1.9,0-3.1,0c-1.3,0-2.5,0-3.1,0c1.9,4.4,3.1,8.2,4.4,11.3
		c1.9,5.7,3.1,8.8,4.4,13.8l1.3,3.1c0.6,0,1.3,0,1.9,0c0.6,0,0.6,0,1.3,0c0.6-1.9,1.3-5,1.9-6.3c1.9-5,1.9-5.7,3.8-11.3l1.3-3.1
		c0.6,1.3,1.3,3.1,1.9,5c0.6,1.3,2.5,7.5,3.1,8.8c0.6,1.9,0.6,2.5,2.5,7.5c0.6,0,1.3,0,1.9,0s1.3,0,1.9,0c1.9-5,1.9-5.7,3.8-11.9
		c2.5-6.3,3.8-10.1,6.3-16.3c-0.6,0-1.3,0-1.9,0c-0.6,0-1.3,0-1.9,0c-1.3,5.7-2.5,8.2-3.1,11.3c-1.9,5.7-1.9,6.3-3.1,9.4
		c-1.3-3.8-2.5-6.9-3.8-10.7c-1.9-2.5-4.4-10.7-4.4-10.7c-0.6,0-1.3,0-1.9,0c-0.6,0-1.3,0-1.9,0c-1.3,5-5.7,17-6.3,18.2l-0.6,2.5
		L212,407.9z"/>
	<path class="st0" d="M253.6,406c-1.3,0-2.5,0-3.8,0s-3.1,0-4.4,0l4.4-10.1L253.6,406z M258.6,417.3c0.6,0,1.9,0,3.1,0
		c1.3,0,2.5,0,3.1,0c-1.9-3.8-4.4-10.1-6.3-13.8c-1.3-3.8-3.8-9.4-5.7-15.1c-0.6,0-0.6,0-1.3,0c-0.6,0-0.6,0-1.3,0
		c-1.3,3.1-3.1,8.8-7.5,18.2l-5,10.7c0.6,0,1.3,0,1.9,0c0.6,0,1.3,0,1.9,0c0.6-2.5,1.9-5.7,3.1-8.8c1.9,0,3.1,0,5,0s3.8,0,5,0
		l1.9,4.4L258.6,417.3z"/>
	<path class="st0" d="M275.6,406c0-0.6,0-0.6,0.6-1.3c1.9-3.1,3.1-6.3,5-8.8c0.6-1.3,3.8-5.7,4.4-6.9c-0.6,0-0.6,0-1.9,0
		c-0.6,0-1.9,0-2.5,0c-3.1,6.3-3.8,8.2-6.9,13.8c-3.8-6.3-5-9.4-7.5-13.8c-1.3,0-2.5,0-3.1,0c-0.6,0-1.9,0-3.1,0
		c1.9,3.8,5.7,9.4,7.5,13.2l2.5,4.4c0,2.5,0,8.2,0,11.3c0.6,0,1.9,0,2.5,0c1.3,0,1.9,0,3.1,0c0-3.8,0-6.3,0-9.4V406H275.6z"/>
	<path class="st0" d="M288.1,411c0,1.9,0,2.5-1.3,4.4c1.3,0.6,4.4,1.9,7.5,1.9c7.5,0,10.7-5,10.7-8.8c0-1.3,0-3.8-1.9-5.7
		c-1.3-1.3-2.5-1.9-5.7-3.1c-3.8-1.3-5.7-2.5-5.7-5c0-2.5,1.9-4.4,5-4.4c2.5,0,5,1.3,5.7,3.8h0.6c0.6-1.9,0.6-1.9,1.3-3.8
		c-1.9-0.6-3.8-1.9-6.9-1.9c-7.5,0-9.4,4.4-9.4,8.2c0,3.1,1.3,5.7,5,7.5c1.3,0.6,3.1,1.3,4.4,1.9c0.6,0.6,3.1,1.3,3.1,5
		c0,3.1-1.9,5-5.7,5C292.5,416,290.7,415.4,288.1,411L288.1,411z"/>
	<path class="st1" d="M58,334.3c0-31.4,17-39.6,29.6-39.6c20.1,0,28.9,17,28.9,35.2c0,10.1-1.3,20.1-6.3,27.7
		c-5,7.5-13.8,12.6-22.6,12.6C64.9,370.1,58,348.1,58,334.3 M120.2,398.4c3.8-2.5,9.4-5.7,13.8-7.5l-28.3-17.6
		c17-6.3,28.3-21.4,28.3-42.8c0-29.6-22.6-42.8-45.9-42.8c-25.2,0-46.5,13.8-46.5,45.3c-0.6,7.5,1.3,20.1,11.3,30.8
		c10.7,10.7,23.9,12.6,34.6,12.6c1.3,0,2.5,0,4.4,0L120.2,398.4z"/>
	<path class="st1" d="M191.9,340c-3.8,0-7.5,0.6-11.3,0.6c-4.4,0-8.8-0.6-13.2-0.6l12.6-30.8L191.9,340z M205.8,374.5
		c2.5,0,5.7-0.6,9.4-0.6s7.5,0.6,9.4,0.6c-5.7-11.9-13.8-30.8-18.2-41.5c-4.4-10.7-11.9-27.7-17.6-44.6c-1.3,0.6-2.5,0.6-3.8,0.6
		c-1.3,0-2.5,0-4.4-0.6c-3.1,10.1-10.1,26.4-22.6,54.7l-14.5,32.1c1.9,0,3.8-0.6,5.7-0.6s4.4,0.6,5.7,0.6c1.9-6.9,5.7-17.6,10.1-27
		c5,0,10.1-0.6,15.1-0.6s10.7,0,15.7,0.6l5,13.2L205.8,374.5z"/>
	<path class="st1" d="M261.1,311.7c0-5,0-9.4,0-13.8c8.8,0,17.6,0,24.5,0.6c-0.6-1.9-0.6-3.1-0.6-4.4s0-2.5,0.6-5
		c-11.9,1.3-22.6,1.3-32.7,1.3c-9.4,0-23.3,0-33.3-0.6c0.6,1.3,0.6,3.1,0.6,4.4s0,3.1-0.6,4.4c6.3-0.6,18.2-0.6,19.5-0.6h6.3
		c0,5,0,9.4,0,13.8v34.6c0,9.4-0.6,18.9-1.3,28.3c4.4-0.6,6.3-0.6,8.2-0.6c1.3,0,5.7,0.6,8.8,0.6c0-3.1,0-7.5,0-17V311.7z"/>
	<path class="st1" d="M330.3,340c-3.8,0-7.5,0.6-11.3,0.6c-4.4,0-8.8-0.6-13.2-0.6l12.6-30.8L330.3,340z M344.1,374.5
		c2.5,0,5.7-0.6,9.4-0.6s7.5,0.6,9.4,0.6c-5.7-11.9-13.8-30.8-18.2-41.5c-4.4-10.7-11.9-27.7-17.6-44.6c-1.3,0.6-2.5,0.6-3.8,0.6
		c-1.3,0-2.5,0-4.4-0.6c-3.1,10.1-10.1,26.4-22.6,54.7l-14.5,32.1c1.9,0,3.8-0.6,5.7-0.6c1.9,0,4.4,0.6,5.7,0.6
		c1.9-6.9,5.7-17.6,10.1-27c5,0,10.1-0.6,15.1-0.6c5,0,10.7,0,15.7,0.6l5,13.2L344.1,374.5z"/>
	<path class="st1" d="M413.3,332.4c11.3-1.9,21.4-9.4,21.4-23.3c0-5-1.9-10.1-5.7-13.8c-5-5-11.3-6.3-19.5-6.3
		c-3.1,0-17,0.6-20.8,0.6c-6.3,0-9.4-0.6-12.6-0.6c0.6,15.7,0.6,17.6,0.6,34c0,23.9,0,26.4-1.3,50.9c2.5-0.6,5.7-0.6,8.8-0.6
		s5.7,0.6,8.2,0.6c0-3.1-0.6-19.5-0.6-22.6v-17h3.1c6.9,9.4,14.5,20.1,20.8,30.2c1.9,3.1,4.4,7.5,6.3,10.1c3.8-0.6,5-0.6,10.1-0.6
		c4.4,0,7.5,0.6,11.3,0.6c-7.5-10.1-11.3-14.5-20.8-27.7c-1.9-2.5-4.4-6.9-6.3-9.4L413.3,332.4z M392.5,295.9c1.9,0,6.3-0.6,8.8-0.6
		c4.4,0,8.2,0.6,11.3,3.1c4.4,3.1,5,7.5,5,13.2c0,8.2-4.4,17-17,17c-3.1,0-6.3,0-8.8-0.6v-32.1H392.5z"/>
	<path class="st2" d="M598.8,332.4c0,0.6-11.3,1.3-27,1.9c-3.1-1.9-5-3.1-6.3-4.4C584.3,331.1,598.8,331.8,598.8,332.4"/>
	<path class="st2" d="M587.5,305.4c0,0.6-9.4,1.3-22.6,1.9c1.9-1.3,3.8-2.5,6.3-3.1C580.5,304.7,587.5,304.7,587.5,305.4"/>
	<path class="st2" d="M486.8,363.8c-6.3,0-11.9,0-15.7,0c-6.3,0-11.3-1.9-11.3-4.4s5-4.4,11.3-4.4c5.7,0,12.6,0,21.4,0
		C488.7,360.7,487.5,363.2,486.8,363.8L486.8,363.8"/>
	<path class="st2" d="M490,369.5c1.9,2.5,3.8,4.4,6.9,6.9c0,0,1.3,1.3,3.8,0c3.1-1.3,5.7-3.1,8.8-6.9c8.8,0,17.6,0.6,26.4,0.6
		c0.6,1.3,2.5,3.1,3.8,6.3c-25.2,0.6-52.2,1.3-66,1.3c-5.7,0-10.7-1.9-10.7-3.8c0-2.5,4.4-3.8,10.7-3.8
		C478.7,369.5,483.7,369.5,490,369.5L490,369.5"/>
	<path class="st2" d="M480.6,390.3c-5,0-9.4-1.9-9.4-3.8s4.4-3.8,9.4-3.8c13.8,0,41.5,0.6,65.4,1.3c1.3,1.9,2.5,3.1,3.1,5
		C524.6,390.3,495,390.3,480.6,390.3"/>
	<path class="st2" d="M559.8,401.6c-20.1,0.6-54.7,1.3-68.5,1.3c-3.8,0-7.5-1.3-7.5-2.5s3.1-2.5,7.5-2.5c13.8,0,45.9,0.6,66,1.3
		C557.9,399.7,558.5,400.9,559.8,401.6"/>
	<path class="st2" d="M507.6,409.1c11.9,0,47.8,0.6,47.8,1.9s-35.8,1.9-47.8,1.9c-2.5,0-4.4-0.6-4.4-1.9
		C503.2,410.4,505.1,409.1,507.6,409.1"/>
	<path class="st2" d="M507.6,336.8c-15.1,0-28.3,0.6-36.5,0.6c-6.3,0-11.3-1.9-11.3-4.4s5-4.4,11.3-4.4c10.1,0,26.4,0,44,0.6
		C512,331.8,509.5,334.3,507.6,336.8"/>
	<path class="st2" d="M580.5,317.3c8.8,0.6,14.5,1.3,14.5,1.3c0,0.6-6.9,1.3-17,1.9C579.9,319.2,580.5,317.9,580.5,317.3"/>
	<path class="st2" d="M474.3,323c-5.7,0-10.7-1.9-10.7-3.8c0-2.5,4.4-3.8,10.7-3.8c11.9,0,33.3,0,54.7,0.6c-2.5,2.5-5,4.4-7.5,6.9
		C502.6,323,485,323,474.3,323"/>
	<path class="st2" d="M539,308.5c-22,0.6-45.9,0.6-58.5,0.6c-5,0-9.4-1.9-9.4-3.8c0-1.9,4.4-3.8,9.4-3.8c13.8,0,41.5,0.6,65.4,1.3
		c-1.3,0.6-2.5,1.9-3.8,2.5C540.9,306.6,539.7,307.3,539,308.5"/>
	<path class="st2" d="M490.6,294.7c-3.8,0-7.5-1.3-7.5-2.5s3.1-2.5,7.5-2.5c15.7-0.6,53.4,0,72.3,1.3c-1.3,0.6-2.5,1.9-3.8,2.5
		C539.7,294,505.1,294.7,490.6,294.7"/>
	<path class="st2" d="M469.9,350.6c-6.3,0-11.3-1.9-11.3-4.4c0-2.5,5-4.4,11.3-4.4c7.5,0,19.5,0,32.7,0.6c-2.5,3.1-4.4,5.7-6.3,8.2
		C485.6,350.6,476.2,350.6,469.9,350.6"/>
	<path class="st2" d="M503.2,281.5c0-1.3,1.9-1.9,4.4-1.9c11.9,0,47.8,0.6,47.8,1.9s-35.8,1.9-47.8,1.9
		C505.1,283.4,503.2,282.1,503.2,281.5"/>
	<path class="st1" d="M600,343.1c0,1.9,0,4.4,0,6.3c-20.8,0.6-40.9,1.9-40.9,3.8c0,1.3,19.5,2.5,40.2,3.8c-0.6,2.5-0.6,5-1.3,6.9
		c-20.1,0.6-39,1.9-39,3.1s17.6,2.5,37.1,3.1c-0.6,2.5-1.9,5-3.1,7.5c-17,0.6-30.8,1.9-30.8,3.1c0,1.3,11.9,1.9,27.7,3.1
		c-0.6,1.3-1.9,2.5-2.5,3.8c-1.3,1.3-1.9,2.5-3.1,4.4c-9.4,0.6-16.3,1.3-16.3,2.5c0,0.6,4.4,1.3,11.9,1.9
		c-3.8,3.8-8.8,7.5-13.8,10.7c0,0-6.3-5.7-11.9-11.9c-5-5.7-15.1-21.4-17-24.5c-2.5-3.1-3.8-4.4-6.9-3.1c-3.8,1.3-8.2,1.9-9.4,1.9
		s-1.9-0.6,0-1.3c2.5-0.6,11.3-5,15.1-13.8c5-9.4,0.6-23.3,0.6-23.3c-1.9,6.9-5.7,10.1-5.7,10.1c1.3-6.9,0-12.6-3.1-17l-2.5,7.5
		c0,0-1.3,0-3.8,2.5s-3.8,5.7-3.8,5.7c2.5,0.6,5-1.3,5-1.3c-3.1,12.6-8.2,23.3-11.9,28.9c-3.8,5.7-6.3,7.5-10.1,8.8
		c-3.1,1.3-3.8,0-3.8,0c-2.5-2.5-4.4-4.4-6.9-6.9c0,0,0,0,0.6,0c1.3,0,4.4-2.5,4.4-3.8c0.6-1.3,0.6-1.9,0-1.9
		c-0.6,0-0.6,0.6-3.8,2.5c-2.5,1.9-4.4,0.6-5-0.6c-0.6-0.6,0-1.9,0.6-2.5c0.6-0.6,15.1-28.3,54.7-57.9
		c51.6-38.4,84.9-48.4,86.8-49.7c1.3-0.6,3.1-1.3,3.8-0.6c0.6,0.6,0.6,1.3,0.6,1.9s-0.6,0.6-2.5,1.9c-20.1,8.8-43.4,23.3-56,32.1
		c-16.3,8.2-31.4,19.5-32.1,19.5c-1.3,0.6-0.6,1.9,0.6,1.3c27.7-18.2,59.7-30.8,95-40.9c1.9-0.6,2.5-0.6,3.1,0s0.6,0.6,0.6,1.3
		s-0.6,1.3-1.9,1.3c-38.4,14.5-66,27-84.3,39.6c0,0-1.9,1.3-1.9,2.5c0,0.6,1.3,0.6,1.3,0.6c8.8,0,21.4,0.6,27,1.3c0,0-0.6,3.1-6.3,5
		c-4.4,1.9-8.2,1.3-11.9,1.3c-0.6,0-1.9,0.6-0.6,1.9C561.7,326.7,569.8,340,600,343.1"/>
	<path class="st1" d="M324,412.9h-5c0,0-0.6-3.1,1.3-4.4c1.9-1.3,3.8-1.9,3.8-1.9V412.9z M347.9,400.9c0,0-3.1,1.9-5,3.8
		c-1.9,1.9,0.6,2.5,0.6,2.5v5.7h-15.1v-20.8c0,0-5.7,5-5.7,5.7c-0.6,0.6,1.3,1.3,1.3,1.3v1.9c0,0-1.9,1.3-5,3.1
		c-2.5,1.9-4.4,3.8-4.4,5.7c0,1.3-0.6,7.5-0.6,7.5h34.6v-16.3H347.9z M317.1,393.4c1.9,0,3.1-0.6,3.1-1.9c0-1.3-0.6-2.5-3.1-2.5
		c-1.9,0-2.5,0.6-2.5,2.5C315.2,392.8,315.8,393.4,317.1,393.4 M323.4,393.4c1.9,0,3.1-0.6,3.1-1.9c0-1.3-0.6-2.5-3.1-2.5
		c-1.9,0-2.5,0.6-2.5,2.5C321.5,392.8,322.1,393.4,323.4,393.4 M333.4,419.2c-1.9,0-2.5,0.6-2.5,2.5c0,1.3,0.6,1.9,2.5,1.9
		s3.1-0.6,3.1-1.9C335.9,419.8,335.3,419.2,333.4,419.2 M339.7,419.2c-1.9,0-2.5,0.6-2.5,2.5c0,1.3,0.6,1.9,2.5,1.9
		c1.9,0,3.1-0.6,3.1-1.9C342.8,419.8,341.6,419.2,339.7,419.2 M413.9,393.4c1.9,0,3.1-0.6,3.1-1.9c0-1.3-0.6-2.5-3.1-2.5
		c-1.9,0-2.5,0.6-2.5,2.5C411.4,392.8,412,393.4,413.9,393.4 M420.2,393.4c1.9,0,3.1-0.6,3.1-1.9c0-1.3-0.6-2.5-3.1-2.5
		c-1.9,0-2.5,0.6-2.5,2.5C417.7,392.8,418.3,393.4,420.2,393.4 M438.4,394c-0.6,0.6-0.6,1.9,0.6,1.9v22h5v-27
		C444.1,390.3,439.1,392.8,438.4,394 M418.9,406h-3.1c0-1.9,3.1-2.5,3.1-2.5V406z M398.2,409.8c0,0.6,0,1.9,0,3.1h-27.7v-5
		c0.6-1.9,1.9-1.9,3.8-1.9h20.1C398.8,406,398.2,408.5,398.2,409.8 M430.2,395.3v17.6H424v-15.7c0,0-1.3,0.6-3.1,1.3
		c-1.9,0.6-8.2,3.8-8.2,6.9v4.4h6.9v3.1h-15.7c0-0.6,0-1.9,0-3.8c0-5-4.4-8.2-8.2-8.2h-18.2c-3.1,0-5,0.6-5.7,1.9v-13.2
		c0,0-3.1,1.9-5,3.8c-1.9,1.9,0,2.5,0,2.5v17h-6.3v-14.5c0,0-4.4,3.1-5.7,3.8c-1.3,0.6-0.6,1.9,0.6,1.9c0,0,0,10.7,0,13.2
		s-1.9,5.7-6.3,4.4c0,0-1.3,0,0,1.3c1.3,1.3,2.5,1.9,4.4,1.9s7.5-1.3,7.5-7.5h76.1v-27c0,0-4.4,3.1-5.7,3.8
		C429,394.7,429,395.3,430.2,395.3"/>
</g>
</svg>
